<?xml version="1.0" encoding="UTF-8"?>
<svg width="1200pt" height="1200pt" version="1.1" viewBox="0 0 1200 1200" xmlns="http://www.w3.org/2000/svg">
 <path d="m1152.6 1029.2-289.62-289.62c-33.469 48.145-75.262 89.938-123.41 123.41l289.62 289.62c16.363 16.363 38.559 25.559 61.703 25.559 23.145 0 45.34-9.1953 61.703-25.559 16.363-16.363 25.559-38.559 25.559-61.703s-9.1953-45.34-25.559-61.703z"/>
 <path d="m658.59 442.49-292.53-168.89c-4.9531-2.8594-10.758-3.8828-16.391-2.8867-5.6289 0.99219-10.734 3.9375-14.41 8.3203-3.6758 4.3789-5.6914 9.9141-5.6914 15.637v337.79c0 5.7188 2.0156 11.254 5.6914 15.637 3.6758 4.3789 8.7812 7.3242 14.41 8.3203 5.6328 0.99219 11.438-0.03125 16.391-2.8906l292.53-168.89h-0.003906c7.5273-4.3438 12.164-12.375 12.164-21.066s-4.6367-16.723-12.164-21.066z"/>
 <path d="m905.23 463.59c0.011719-87.359-25.887-172.76-74.418-245.4-48.527-72.641-117.51-129.26-198.22-162.69-80.707-33.434-169.52-42.18-255.2-25.137-85.68 17.043-164.38 59.117-226.15 120.89-82.691 82.863-129.11 195.16-129.05 312.23 0.058594 117.07 46.59 229.32 129.37 312.1s195.03 129.3 312.09 129.37c117.07 0.058594 229.37-46.359 312.23-129.05 41.141-40.918 73.754-89.59 95.957-143.2 22.203-53.609 33.555-111.09 33.395-169.11zm-692.29 250.58c-66.465-66.469-103.8-156.62-103.8-250.62 0-93.996 37.344-184.14 103.81-250.61 66.469-66.465 156.61-103.8 250.61-103.8 93.996 0 184.14 37.34 250.61 103.8 66.469 66.465 103.81 156.61 103.81 250.61 0 94-37.336 184.15-103.8 250.62-66.52 66.371-156.65 103.65-250.62 103.65s-184.1-37.277-250.62-103.65z"/>
</svg>
